G04 #@! TF.FileFunction,Soldermask,Top*
%FSLAX46Y46*%
G04 Gerber Fmt 4.6, Leading zero omitted, Abs format (unit mm)*
G04 Created by KiCad (PCBNEW 4.0.7) date Thu Oct 12 12:28:44 2017*
%MOMM*%
%LPD*%
G01*
G04 APERTURE LIST*
%ADD10C,0.200000*%
%ADD11C,1.670000*%
%ADD12C,0.897840*%
%ADD13R,1.416000X1.797000*%
%ADD14R,1.670000X1.670000*%
%ADD15R,2.051000X2.051000*%
%ADD16C,2.051000*%
%ADD17R,1.797000X1.797000*%
%ADD18R,1.670000X2.178000*%
%ADD19R,1.543000X1.416000*%
%ADD20R,1.289000X1.289000*%
%ADD21R,2.686000X1.670000*%
%ADD22R,2.559000X3.956000*%
%ADD23R,1.898600X0.798780*%
%ADD24O,0.798780X1.898600*%
%ADD25O,1.997660X1.799540*%
%ADD26O,1.416000X2.432000*%
%ADD27C,2.299920*%
G04 APERTURE END LIST*
D10*
D11*
X157480000Y-99019360D03*
X157480000Y-94020640D03*
D12*
X161244280Y-95758000D03*
X160319720Y-95758000D03*
D13*
X161671000Y-71628000D03*
X159893000Y-71628000D03*
D14*
X172720000Y-70612000D03*
X175260000Y-70612000D03*
D12*
X160274000Y-93517720D03*
X160274000Y-94442280D03*
D15*
X152908000Y-91186000D03*
D16*
X152908000Y-88646000D03*
X152908000Y-86106000D03*
X152908000Y-83566000D03*
X152908000Y-81026000D03*
X152908000Y-78486000D03*
X152908000Y-75946000D03*
X152908000Y-73406000D03*
D15*
X177292000Y-91694000D03*
D16*
X177292000Y-89154000D03*
X177292000Y-86614000D03*
X177292000Y-84074000D03*
X177292000Y-81534000D03*
X177292000Y-78994000D03*
X177292000Y-76454000D03*
X177292000Y-73914000D03*
D17*
X164846000Y-93599000D03*
X164846000Y-90297000D03*
D18*
X169799000Y-85852000D03*
X167005000Y-85852000D03*
D19*
X158242000Y-84455000D03*
X158242000Y-82677000D03*
X156210000Y-83566000D03*
X157226000Y-89027000D03*
X157226000Y-90805000D03*
X159258000Y-89916000D03*
D20*
X174752000Y-76454000D03*
X173228000Y-76454000D03*
X173228000Y-74422000D03*
X174752000Y-74422000D03*
X174752000Y-72644000D03*
X173228000Y-72644000D03*
X164084000Y-86614000D03*
X164084000Y-85090000D03*
X174498000Y-83820000D03*
X174498000Y-82296000D03*
X169926000Y-70866000D03*
X169926000Y-72390000D03*
X168148000Y-70866000D03*
X168148000Y-72390000D03*
X166370000Y-70866000D03*
X166370000Y-72390000D03*
X168148000Y-68580000D03*
X169672000Y-68580000D03*
X174752000Y-78994000D03*
X174752000Y-80518000D03*
X156972000Y-77470000D03*
X156972000Y-75946000D03*
X155829000Y-87757000D03*
X155829000Y-86233000D03*
D21*
X173863000Y-93726000D03*
X173863000Y-91440000D03*
X173863000Y-89154000D03*
D22*
X167513000Y-91440000D03*
D23*
X161475420Y-74515980D03*
X161475420Y-75166220D03*
X161475420Y-75816460D03*
X161475420Y-76466700D03*
X161475420Y-77116940D03*
X161475420Y-77767180D03*
X161475420Y-78417420D03*
X161475420Y-79062580D03*
X161475420Y-79712820D03*
X161475420Y-80363060D03*
X161475420Y-81013300D03*
X161475420Y-81663540D03*
X161475420Y-82313780D03*
X161475420Y-82964020D03*
X168724580Y-82964020D03*
X168724580Y-82313780D03*
X168724580Y-81663540D03*
X168724580Y-81013300D03*
X168724580Y-80363060D03*
X168724580Y-79712820D03*
X168724580Y-79062580D03*
X168724580Y-78417420D03*
X168724580Y-77767180D03*
X168724580Y-77116940D03*
X168724580Y-76466700D03*
X168724580Y-75816460D03*
X168724580Y-75166220D03*
X168724580Y-74515980D03*
D24*
X165326060Y-96260920D03*
X165976300Y-96260920D03*
X166624000Y-96260920D03*
X167271700Y-96260920D03*
X167921940Y-96260920D03*
D25*
X163225480Y-96438720D03*
D26*
X163324540Y-98686620D03*
D27*
X165425120Y-98686620D03*
X167822880Y-98686620D03*
D26*
X169923460Y-98686620D03*
D25*
X170022520Y-96438720D03*
D12*
X174706280Y-77724000D03*
X173781720Y-77724000D03*
M02*
