G04 #@! TF.FileFunction,Soldermask,Bot*
%FSLAX46Y46*%
G04 Gerber Fmt 4.6, Leading zero omitted, Abs format (unit mm)*
G04 Created by KiCad (PCBNEW 4.0.7) date Thu Oct 12 12:28:44 2017*
%MOMM*%
%LPD*%
G01*
G04 APERTURE LIST*
%ADD10C,0.200000*%
%ADD11C,1.670000*%
%ADD12R,2.051000X2.051000*%
%ADD13C,2.051000*%
%ADD14O,1.416000X2.432000*%
%ADD15R,2.900000X1.500000*%
%ADD16R,1.500000X2.900000*%
G04 APERTURE END LIST*
D10*
D11*
X157480000Y-99019360D03*
X157480000Y-94020640D03*
D12*
X152908000Y-91186000D03*
D13*
X152908000Y-88646000D03*
X152908000Y-86106000D03*
X152908000Y-83566000D03*
X152908000Y-81026000D03*
X152908000Y-78486000D03*
X152908000Y-75946000D03*
X152908000Y-73406000D03*
D12*
X177292000Y-91694000D03*
D13*
X177292000Y-89154000D03*
X177292000Y-86614000D03*
X177292000Y-84074000D03*
X177292000Y-81534000D03*
X177292000Y-78994000D03*
X177292000Y-76454000D03*
X177292000Y-73914000D03*
D14*
X163324540Y-98686620D03*
X169923460Y-98686620D03*
D15*
X172404000Y-70104000D03*
X172404000Y-72104000D03*
X172404000Y-74104000D03*
X172404000Y-76104000D03*
X172404000Y-78104000D03*
X172404000Y-80104000D03*
X172404000Y-82104000D03*
X172404000Y-84104000D03*
X157004000Y-84104000D03*
X157004000Y-82104000D03*
X157004000Y-80104000D03*
X157004000Y-78104000D03*
X157004000Y-76104000D03*
X157004000Y-74104000D03*
X157004000Y-72104000D03*
X157004000Y-70104000D03*
D16*
X169714000Y-85804000D03*
X167714000Y-85804000D03*
X165714000Y-85804000D03*
X163714000Y-85804000D03*
X161714000Y-85804000D03*
X159714000Y-85804000D03*
M02*
