M48
;DRILL file {KiCad 4.0.7} date Thu Oct 12 12:28:56 2017
;FORMAT={-:-/ absolute / metric / decimal}
FMAT,2
METRIC,TZ
T1C0.400
T2C0.508
T3C0.798
T4C0.889
%
G90
G05
M71
T1
X154.94Y-72.009
X159.004Y-77.089
X159.639Y-78.486
X159.766Y-73.152
X159.766Y-82.931
X160.274Y-91.44
X160.274Y-92.71
X163.068Y-78.74
X163.195Y-75.819
X163.449Y-77.089
X163.957Y-72.517
X164.338Y-87.63
X164.846Y-75.819
X165.608Y-77.216
X165.735Y-82.169
X165.989Y-74.422
X166.243Y-78.994
X166.624Y-80.899
X166.624Y-82.169
X167.132Y-94.742
X167.259Y-79.121
X167.513Y-87.884
X169.672Y-91.44
X170.053Y-73.66
X170.561Y-77.978
X170.561Y-80.01
X171.704Y-68.453
X171.704Y-91.44
X172.339Y-86.995
X175.641Y-89.154
X176.022Y-72.136
T2
X163.325Y-98.687
X169.923Y-98.687
T3
X157.48Y-94.021
X157.48Y-99.019
T4
X152.908Y-73.406
X152.908Y-75.946
X152.908Y-78.486
X152.908Y-81.026
X152.908Y-83.566
X152.908Y-86.106
X152.908Y-88.646
X152.908Y-91.186
X177.292Y-73.914
X177.292Y-76.454
X177.292Y-78.994
X177.292Y-81.534
X177.292Y-84.074
X177.292Y-86.614
X177.292Y-89.154
X177.292Y-91.694
T0
M30
