G04 #@! TF.FileFunction,Copper,L1,Top,Signal*
%FSLAX46Y46*%
G04 Gerber Fmt 4.6, Leading zero omitted, Abs format (unit mm)*
G04 Created by KiCad (PCBNEW 4.0.7) date Thu Oct 12 12:28:44 2017*
%MOMM*%
%LPD*%
G01*
G04 APERTURE LIST*
%ADD10C,0.200000*%
%ADD11C,1.270000*%
%ADD12C,0.497840*%
%ADD13R,1.016000X1.397000*%
%ADD14R,1.270000X1.270000*%
%ADD15R,1.651000X1.651000*%
%ADD16C,1.651000*%
%ADD17R,1.397000X1.397000*%
%ADD18R,1.270000X1.778000*%
%ADD19R,1.143000X1.016000*%
%ADD20R,0.889000X0.889000*%
%ADD21R,2.286000X1.270000*%
%ADD22R,2.159000X3.556000*%
%ADD23R,1.498600X0.398780*%
%ADD24O,0.398780X1.498600*%
%ADD25O,1.597660X1.399540*%
%ADD26O,1.016000X2.032000*%
%ADD27C,1.899920*%
%ADD28C,0.600000*%
%ADD29C,0.250000*%
%ADD30C,0.254000*%
G04 APERTURE END LIST*
D10*
D11*
X157480000Y-99019360D03*
X157480000Y-94020640D03*
D12*
X161244280Y-95758000D03*
X160319720Y-95758000D03*
D13*
X161671000Y-71628000D03*
X159893000Y-71628000D03*
D14*
X172720000Y-70612000D03*
X175260000Y-70612000D03*
D12*
X160274000Y-93517720D03*
X160274000Y-94442280D03*
D15*
X152908000Y-91186000D03*
D16*
X152908000Y-88646000D03*
X152908000Y-86106000D03*
X152908000Y-83566000D03*
X152908000Y-81026000D03*
X152908000Y-78486000D03*
X152908000Y-75946000D03*
X152908000Y-73406000D03*
D15*
X177292000Y-91694000D03*
D16*
X177292000Y-89154000D03*
X177292000Y-86614000D03*
X177292000Y-84074000D03*
X177292000Y-81534000D03*
X177292000Y-78994000D03*
X177292000Y-76454000D03*
X177292000Y-73914000D03*
D17*
X164846000Y-93599000D03*
X164846000Y-90297000D03*
D18*
X169799000Y-85852000D03*
X167005000Y-85852000D03*
D19*
X158242000Y-84455000D03*
X158242000Y-82677000D03*
X156210000Y-83566000D03*
X157226000Y-89027000D03*
X157226000Y-90805000D03*
X159258000Y-89916000D03*
D20*
X174752000Y-76454000D03*
X173228000Y-76454000D03*
X173228000Y-74422000D03*
X174752000Y-74422000D03*
X174752000Y-72644000D03*
X173228000Y-72644000D03*
X164084000Y-86614000D03*
X164084000Y-85090000D03*
X174498000Y-83820000D03*
X174498000Y-82296000D03*
X169926000Y-70866000D03*
X169926000Y-72390000D03*
X168148000Y-70866000D03*
X168148000Y-72390000D03*
X166370000Y-70866000D03*
X166370000Y-72390000D03*
X168148000Y-68580000D03*
X169672000Y-68580000D03*
X174752000Y-78994000D03*
X174752000Y-80518000D03*
X156972000Y-77470000D03*
X156972000Y-75946000D03*
X155829000Y-87757000D03*
X155829000Y-86233000D03*
D21*
X173863000Y-93726000D03*
X173863000Y-91440000D03*
X173863000Y-89154000D03*
D22*
X167513000Y-91440000D03*
D23*
X161475420Y-74515980D03*
X161475420Y-75166220D03*
X161475420Y-75816460D03*
X161475420Y-76466700D03*
X161475420Y-77116940D03*
X161475420Y-77767180D03*
X161475420Y-78417420D03*
X161475420Y-79062580D03*
X161475420Y-79712820D03*
X161475420Y-80363060D03*
X161475420Y-81013300D03*
X161475420Y-81663540D03*
X161475420Y-82313780D03*
X161475420Y-82964020D03*
X168724580Y-82964020D03*
X168724580Y-82313780D03*
X168724580Y-81663540D03*
X168724580Y-81013300D03*
X168724580Y-80363060D03*
X168724580Y-79712820D03*
X168724580Y-79062580D03*
X168724580Y-78417420D03*
X168724580Y-77767180D03*
X168724580Y-77116940D03*
X168724580Y-76466700D03*
X168724580Y-75816460D03*
X168724580Y-75166220D03*
X168724580Y-74515980D03*
D24*
X165326060Y-96260920D03*
X165976300Y-96260920D03*
X166624000Y-96260920D03*
X167271700Y-96260920D03*
X167921940Y-96260920D03*
D25*
X163225480Y-96438720D03*
D26*
X163324540Y-98686620D03*
D27*
X165425120Y-98686620D03*
X167822880Y-98686620D03*
D26*
X169923460Y-98686620D03*
D25*
X170022520Y-96438720D03*
D12*
X174706280Y-77724000D03*
X173781720Y-77724000D03*
D28*
X163068000Y-78740000D03*
X167259000Y-79121000D03*
X159766000Y-82931000D03*
X159639000Y-78486000D03*
X159766000Y-73152000D03*
X163957000Y-72517000D03*
X159004000Y-77089000D03*
X154940000Y-72009000D03*
X165989000Y-74422000D03*
X163195000Y-75819000D03*
X164846000Y-75819000D03*
X176022000Y-72136000D03*
X164338000Y-87630000D03*
X167132000Y-94742000D03*
X170053000Y-73660000D03*
X166624000Y-80899000D03*
X166624000Y-82169000D03*
X165608000Y-77216000D03*
X163449000Y-77089000D03*
X167513000Y-87884000D03*
X175641000Y-89154000D03*
X170561000Y-80010000D03*
X170561000Y-77978000D03*
X166243000Y-78994000D03*
X172339000Y-86995000D03*
X169672000Y-91440000D03*
X171704000Y-91440000D03*
X165735000Y-82169000D03*
X160274000Y-91440000D03*
X160274000Y-92710000D03*
X171704000Y-68453000D03*
D29*
X162745420Y-78417420D02*
X163068000Y-78740000D01*
X167259000Y-79121000D02*
X167317420Y-79062580D01*
X168724580Y-79062580D02*
X167317420Y-79062580D01*
X162745420Y-78417420D02*
X161475420Y-78417420D01*
X159639000Y-82804000D02*
X159639000Y-78486000D01*
X159766000Y-82931000D02*
X159639000Y-82804000D01*
X175260000Y-70612000D02*
X175260000Y-69596000D01*
X159893000Y-70866000D02*
X159893000Y-71628000D01*
X160401000Y-70358000D02*
X159893000Y-70866000D01*
X165100000Y-70358000D02*
X160401000Y-70358000D01*
X166243000Y-69215000D02*
X165100000Y-70358000D01*
X166243000Y-68834000D02*
X166243000Y-69215000D01*
X167386000Y-67691000D02*
X166243000Y-68834000D01*
X172212000Y-67691000D02*
X167386000Y-67691000D01*
X173355000Y-68834000D02*
X172212000Y-67691000D01*
X174498000Y-68834000D02*
X173355000Y-68834000D01*
X175260000Y-69596000D02*
X174498000Y-68834000D01*
X167822880Y-98686620D02*
X169923460Y-98686620D01*
X165425120Y-98686620D02*
X167822880Y-98686620D01*
X163324540Y-98686620D02*
X165425120Y-98686620D01*
X163324540Y-98686620D02*
X163324540Y-96537780D01*
X163324540Y-96537780D02*
X163225480Y-96438720D01*
X169923460Y-98686620D02*
X169923460Y-96537780D01*
X169923460Y-96537780D02*
X170022520Y-96438720D01*
X167921940Y-96260920D02*
X169844720Y-96260920D01*
X169844720Y-96260920D02*
X170022520Y-96438720D01*
X157480000Y-94020640D02*
X159171640Y-94020640D01*
X159593280Y-94442280D02*
X160274000Y-94442280D01*
X159171640Y-94020640D02*
X159593280Y-94442280D01*
X160319720Y-95758000D02*
X160319720Y-94488000D01*
X160319720Y-94488000D02*
X160274000Y-94442280D01*
X163225480Y-96438720D02*
X160863280Y-96438720D01*
X160817560Y-96255840D02*
X160319720Y-95758000D01*
X160817560Y-96393000D02*
X160817560Y-96255840D01*
X160863280Y-96438720D02*
X160817560Y-96393000D01*
X170022520Y-96438720D02*
X171150280Y-96438720D01*
X171150280Y-96438720D02*
X173863000Y-93726000D01*
X168724580Y-81013300D02*
X169684700Y-81013300D01*
X169926000Y-80772000D02*
X169926000Y-78994000D01*
X169684700Y-81013300D02*
X169926000Y-80772000D01*
X161475420Y-78417420D02*
X159707580Y-78417420D01*
X159707580Y-78417420D02*
X159639000Y-78486000D01*
X159893000Y-73025000D02*
X159893000Y-71628000D01*
X159766000Y-73152000D02*
X159893000Y-73025000D01*
X173228000Y-72644000D02*
X171831000Y-72644000D01*
X170688000Y-75178920D02*
X170050460Y-75816460D01*
X170688000Y-73787000D02*
X170688000Y-75178920D01*
X171831000Y-72644000D02*
X170688000Y-73787000D01*
X170053000Y-76454000D02*
X170053000Y-77597000D01*
X169926000Y-77724000D02*
X169926000Y-78994000D01*
X170053000Y-77597000D02*
X169926000Y-77724000D01*
X168724580Y-75816460D02*
X170050460Y-75816460D01*
X169913300Y-76466700D02*
X168724580Y-76466700D01*
X169926000Y-76454000D02*
X169913300Y-76466700D01*
X170053000Y-76454000D02*
X170053000Y-76454000D01*
X170053000Y-76454000D02*
X169926000Y-76454000D01*
X170053000Y-75946000D02*
X170053000Y-76454000D01*
X170050460Y-75816460D02*
X170053000Y-75946000D01*
X174752000Y-78994000D02*
X169926000Y-78994000D01*
X169926000Y-78994000D02*
X168793160Y-78994000D01*
X168793160Y-78994000D02*
X168724580Y-79062580D01*
X174752000Y-78994000D02*
X174752000Y-77769720D01*
X174752000Y-77769720D02*
X174706280Y-77724000D01*
X173228000Y-72644000D02*
X173228000Y-72136000D01*
X174371000Y-71501000D02*
X175260000Y-70612000D01*
X173863000Y-71501000D02*
X174371000Y-71501000D01*
X173228000Y-72136000D02*
X173863000Y-71501000D01*
X164084000Y-72390000D02*
X166370000Y-72390000D01*
X163957000Y-72517000D02*
X164084000Y-72390000D01*
X161475420Y-77116940D02*
X159031940Y-77116940D01*
X159031940Y-77116940D02*
X159004000Y-77089000D01*
X161475420Y-74515980D02*
X160113980Y-74515980D01*
X158750000Y-73152000D02*
X153797000Y-73152000D01*
X160113980Y-74515980D02*
X158750000Y-73152000D01*
X152908000Y-73406000D02*
X153543000Y-73406000D01*
X153543000Y-73406000D02*
X153797000Y-73152000D01*
X153797000Y-73152000D02*
X154940000Y-72009000D01*
X177292000Y-89154000D02*
X175768000Y-87630000D01*
X175768000Y-81534000D02*
X174752000Y-80518000D01*
X175768000Y-87630000D02*
X175768000Y-81534000D01*
X174752000Y-76454000D02*
X177292000Y-76454000D01*
X165326060Y-96260920D02*
X165326060Y-95222060D01*
X164846000Y-94742000D02*
X164846000Y-93599000D01*
X165326060Y-95222060D02*
X164846000Y-94742000D01*
X164846000Y-90297000D02*
X165227000Y-90297000D01*
X165227000Y-90297000D02*
X165989000Y-90297000D01*
X165989000Y-90297000D02*
X165989000Y-90297000D01*
X165989000Y-90297000D02*
X165989000Y-89027000D01*
X165989000Y-89027000D02*
X169799000Y-89027000D01*
X169799000Y-89027000D02*
X169799000Y-88138000D01*
X169799000Y-88138000D02*
X169799000Y-85852000D01*
X158242000Y-84455000D02*
X157988000Y-84455000D01*
X157988000Y-84455000D02*
X157226000Y-83693000D01*
X157226000Y-83693000D02*
X157226000Y-77724000D01*
X157226000Y-77724000D02*
X156972000Y-77470000D01*
X155829000Y-86233000D02*
X156591000Y-86233000D01*
X160655000Y-87630000D02*
X160655000Y-83947000D01*
X160528000Y-87757000D02*
X160655000Y-87630000D01*
X158115000Y-87757000D02*
X160528000Y-87757000D01*
X156591000Y-86233000D02*
X158115000Y-87757000D01*
X161475420Y-75166220D02*
X164084010Y-75182422D01*
X164084010Y-75182422D02*
X164084010Y-75200202D01*
X158242000Y-82677000D02*
X159131000Y-82677000D01*
X162814000Y-79629000D02*
X164084000Y-79629000D01*
X164084000Y-79629000D02*
X164084010Y-75200202D01*
X162814000Y-83947000D02*
X162814000Y-79629000D01*
X159139211Y-83946947D02*
X160655000Y-83947000D01*
X160655000Y-83947000D02*
X162814000Y-83947000D01*
X159131000Y-82677000D02*
X159139211Y-83946947D01*
X166878000Y-73660000D02*
X168148000Y-72390000D01*
X166751000Y-73660000D02*
X166878000Y-73660000D01*
X165989000Y-74422000D02*
X166751000Y-73660000D01*
X152908000Y-83566000D02*
X156210000Y-83566000D01*
X155829000Y-87757000D02*
X155956000Y-87757000D01*
X155956000Y-87757000D02*
X157226000Y-89027000D01*
X159258000Y-89916000D02*
X160020000Y-89916000D01*
X163192460Y-75816460D02*
X161475420Y-75816460D01*
X163195000Y-75819000D02*
X163192460Y-75816460D01*
X164846000Y-80391000D02*
X164846000Y-75819000D01*
X163449000Y-80391000D02*
X164846000Y-80391000D01*
X163449000Y-83947000D02*
X163449000Y-80391000D01*
X162814000Y-84709000D02*
X163449000Y-83947000D01*
X161925000Y-84709000D02*
X162814000Y-84709000D01*
X161417000Y-85217000D02*
X161925000Y-84709000D01*
X161417000Y-88519000D02*
X161417000Y-85217000D01*
X160020000Y-89916000D02*
X161417000Y-88519000D01*
X161475420Y-75816460D02*
X159006540Y-75816460D01*
X158877000Y-75946000D02*
X156972000Y-75946000D01*
X159006540Y-75816460D02*
X158877000Y-75946000D01*
X173228000Y-74422000D02*
X173228000Y-76454000D01*
X175514000Y-72644000D02*
X176022000Y-72136000D01*
X174752000Y-72644000D02*
X175514000Y-72644000D01*
X174752000Y-74422000D02*
X174752000Y-72644000D01*
X166624000Y-96260920D02*
X166624000Y-95250000D01*
X164338000Y-87503000D02*
X164338000Y-86614000D01*
X164338000Y-87630000D02*
X164338000Y-87503000D01*
X166624000Y-95250000D02*
X167132000Y-94742000D01*
X164338000Y-85090000D02*
X164338000Y-84074000D01*
X167606980Y-82964020D02*
X168724580Y-82964020D01*
X167513000Y-82931000D02*
X167606980Y-82964020D01*
X167513000Y-82677000D02*
X167513000Y-82931000D01*
X167513000Y-81534000D02*
X167513000Y-82677000D01*
X164084000Y-80899000D02*
X165862000Y-80899000D01*
X165862000Y-80899000D02*
X165862000Y-81534000D01*
X165862000Y-81534000D02*
X167513000Y-81534000D01*
X164026002Y-80956998D02*
X164084000Y-80899000D01*
X164026002Y-83762002D02*
X164026002Y-80956998D01*
X164338000Y-84074000D02*
X164026002Y-83762002D01*
X165976300Y-96260920D02*
X165976300Y-94627700D01*
X174498000Y-86106000D02*
X174498000Y-83820000D01*
X170815000Y-86106000D02*
X174498000Y-86106000D01*
X170802893Y-92963966D02*
X170815000Y-86106000D01*
X170813271Y-93726024D02*
X170802893Y-92963966D01*
X166878000Y-93726000D02*
X170813271Y-93726024D01*
X165976300Y-94627700D02*
X166878000Y-93726000D01*
X168724580Y-82313780D02*
X174480220Y-82313780D01*
X174480220Y-82313780D02*
X174498000Y-82296000D01*
X169926000Y-73533000D02*
X169926000Y-72390000D01*
X170053000Y-73660000D02*
X169926000Y-73533000D01*
X161671000Y-71628000D02*
X161671000Y-72136000D01*
X161671000Y-72136000D02*
X162814000Y-73279000D01*
X162814000Y-73279000D02*
X162814000Y-74041000D01*
X162814000Y-74041000D02*
X163322000Y-74549000D01*
X163322000Y-74549000D02*
X164465000Y-74549000D01*
X164465000Y-74549000D02*
X165608000Y-75692000D01*
X165608000Y-75692000D02*
X165608000Y-77216000D01*
X167005000Y-85852000D02*
X167005000Y-83566000D01*
X166624000Y-80899000D02*
X166624000Y-80137000D01*
X167005000Y-83566000D02*
X166624000Y-82169000D01*
X165608000Y-77216000D02*
X165608000Y-77470000D01*
X165354000Y-80137000D02*
X166624000Y-80137000D01*
X165354000Y-77724000D02*
X165354000Y-80137000D01*
X165608000Y-77470000D02*
X165354000Y-77724000D01*
X168724580Y-79712820D02*
X167556180Y-79712820D01*
X167132000Y-80137000D02*
X166624000Y-80137000D01*
X167556180Y-79712820D02*
X167132000Y-80137000D01*
X163449000Y-76581000D02*
X161589720Y-76581000D01*
X165608000Y-77216000D02*
X165608000Y-77216000D01*
X163449000Y-77089000D02*
X163449000Y-76581000D01*
X161589720Y-76581000D02*
X161475420Y-76466700D01*
X173863000Y-89154000D02*
X175641000Y-89154000D01*
X167005000Y-87376000D02*
X167005000Y-85852000D01*
X167513000Y-87884000D02*
X167005000Y-87376000D01*
X167005000Y-85852000D02*
X167005000Y-86614000D01*
X167005000Y-86614000D02*
X167005000Y-88138000D01*
X167005000Y-88138000D02*
X165481000Y-88138000D01*
X165481000Y-88138000D02*
X165481000Y-89154000D01*
X165481000Y-89154000D02*
X163576000Y-89154000D01*
X163576000Y-89154000D02*
X161287479Y-91564607D01*
X161287479Y-91564607D02*
X161244280Y-93172280D01*
X152908000Y-91186000D02*
X152908000Y-91186001D01*
X152908000Y-91186001D02*
X154432000Y-92075001D01*
X154432000Y-92075001D02*
X160782000Y-92075000D01*
X160782000Y-92075000D02*
X161244280Y-93172280D01*
X161244280Y-93172280D02*
X161244280Y-95758000D01*
X168724580Y-81663540D02*
X170177460Y-81663540D01*
X170688000Y-77724000D02*
X170561000Y-77978000D01*
X170688000Y-77724000D02*
X173781720Y-77724000D01*
X170561000Y-81280000D02*
X170561000Y-80010000D01*
X170177460Y-81663540D02*
X170561000Y-81280000D01*
X166370000Y-70866000D02*
X163703000Y-70866000D01*
X166243353Y-75066035D02*
X166243000Y-78994000D01*
X164401417Y-73726742D02*
X165694360Y-75087480D01*
X165694360Y-75087480D02*
X166243353Y-75066035D01*
X164465000Y-73660000D02*
X164401417Y-73726742D01*
X163322000Y-73660000D02*
X164465000Y-73660000D01*
X163322000Y-71501000D02*
X163322000Y-73660000D01*
X163703000Y-70866000D02*
X163322000Y-71501000D01*
X172212000Y-91440000D02*
X172212000Y-87122000D01*
X172212000Y-87122000D02*
X172339000Y-86995000D01*
X173863000Y-91440000D02*
X172212000Y-91440000D01*
X172212000Y-91440000D02*
X171704000Y-91440000D01*
X169672000Y-91440000D02*
X167513000Y-91440000D01*
X177292000Y-91694000D02*
X174117000Y-91694000D01*
X174117000Y-91694000D02*
X173863000Y-91440000D01*
X166370000Y-70866000D02*
X168148000Y-70866000D01*
X169926000Y-70866000D02*
X172466000Y-70866000D01*
X172466000Y-70866000D02*
X172720000Y-70612000D01*
X168148000Y-70866000D02*
X169926000Y-70866000D01*
X168148000Y-68580000D02*
X168148000Y-70866000D01*
X160274000Y-91440000D02*
X160528000Y-91440000D01*
X165862000Y-87630000D02*
X165735000Y-82169000D01*
X164973000Y-88519000D02*
X164973000Y-87630000D01*
X164973000Y-87630000D02*
X165862000Y-87630000D01*
X163449000Y-88519000D02*
X164973000Y-88519000D01*
X160528000Y-91440000D02*
X163449000Y-88519000D01*
X159489140Y-92732860D02*
X160251140Y-92732860D01*
X159639000Y-90805000D02*
X157226000Y-90805000D01*
X160274000Y-91440000D02*
X159639000Y-90805000D01*
X160251140Y-92732860D02*
X160274000Y-92710000D01*
X157480000Y-99019360D02*
X157480000Y-96266000D01*
X159466280Y-92710000D02*
X159489140Y-92732860D01*
X159489140Y-92732860D02*
X160274000Y-93517720D01*
X156591000Y-92710000D02*
X159466280Y-92710000D01*
X156083000Y-93218000D02*
X156591000Y-92710000D01*
X156083000Y-94869000D02*
X156083000Y-93218000D01*
X157480000Y-96266000D02*
X156083000Y-94869000D01*
X171704000Y-68453000D02*
X171577000Y-68580000D01*
X171577000Y-68580000D02*
X169672000Y-68580000D01*
D30*
G36*
X158849404Y-95186156D02*
X159189533Y-95413423D01*
X159144004Y-95523069D01*
X159143596Y-95990879D01*
X159322242Y-96423235D01*
X159652745Y-96754315D01*
X159881546Y-96849322D01*
X160073684Y-97136876D01*
X160119404Y-97182596D01*
X160460697Y-97410641D01*
X160863280Y-97490720D01*
X161876627Y-97490720D01*
X161942309Y-97589020D01*
X161992567Y-97622602D01*
X161889540Y-98140554D01*
X161889540Y-99056600D01*
X159041968Y-99056600D01*
X159042270Y-98710022D01*
X158804971Y-98135714D01*
X158532000Y-97862266D01*
X158532000Y-96266000D01*
X158451921Y-95863417D01*
X158405474Y-95793904D01*
X158223876Y-95522123D01*
X158139839Y-95438086D01*
X158363646Y-95345611D01*
X158637094Y-95072640D01*
X158735888Y-95072640D01*
X158849404Y-95186156D01*
X158849404Y-95186156D01*
G37*
X158849404Y-95186156D02*
X159189533Y-95413423D01*
X159144004Y-95523069D01*
X159143596Y-95990879D01*
X159322242Y-96423235D01*
X159652745Y-96754315D01*
X159881546Y-96849322D01*
X160073684Y-97136876D01*
X160119404Y-97182596D01*
X160460697Y-97410641D01*
X160863280Y-97490720D01*
X161876627Y-97490720D01*
X161942309Y-97589020D01*
X161992567Y-97622602D01*
X161889540Y-98140554D01*
X161889540Y-99056600D01*
X159041968Y-99056600D01*
X159042270Y-98710022D01*
X158804971Y-98135714D01*
X158532000Y-97862266D01*
X158532000Y-96266000D01*
X158451921Y-95863417D01*
X158405474Y-95793904D01*
X158223876Y-95522123D01*
X158139839Y-95438086D01*
X158363646Y-95345611D01*
X158637094Y-95072640D01*
X158735888Y-95072640D01*
X158849404Y-95186156D01*
G36*
X175771153Y-99056600D02*
X171358460Y-99056600D01*
X171358460Y-98140554D01*
X171255433Y-97622602D01*
X171305691Y-97589020D01*
X171405263Y-97440001D01*
X171552863Y-97410641D01*
X171894156Y-97182596D01*
X173770592Y-95306161D01*
X175006000Y-95306161D01*
X175349526Y-95241522D01*
X175665033Y-95038499D01*
X175785976Y-94861493D01*
X175771153Y-99056600D01*
X175771153Y-99056600D01*
G37*
X175771153Y-99056600D02*
X171358460Y-99056600D01*
X171358460Y-98140554D01*
X171255433Y-97622602D01*
X171305691Y-97589020D01*
X171405263Y-97440001D01*
X171552863Y-97410641D01*
X171894156Y-97182596D01*
X173770592Y-95306161D01*
X175006000Y-95306161D01*
X175349526Y-95241522D01*
X175665033Y-95038499D01*
X175785976Y-94861493D01*
X175771153Y-99056600D01*
G36*
X171774839Y-94326408D02*
X171010241Y-95091006D01*
X170777929Y-94935780D01*
X170155391Y-94811950D01*
X169889649Y-94811950D01*
X169267111Y-94935780D01*
X168912763Y-95172548D01*
X168718418Y-94881691D01*
X168563249Y-94778010D01*
X170813265Y-94778024D01*
X170820420Y-94776601D01*
X170827596Y-94777927D01*
X171021484Y-94736608D01*
X171215848Y-94697947D01*
X171221914Y-94693894D01*
X171229051Y-94692373D01*
X171392346Y-94580017D01*
X171557142Y-94469905D01*
X171561196Y-94463838D01*
X171567207Y-94459702D01*
X171675063Y-94293427D01*
X171774839Y-94144104D01*
X171774839Y-94326408D01*
X171774839Y-94326408D01*
G37*
X171774839Y-94326408D02*
X171010241Y-95091006D01*
X170777929Y-94935780D01*
X170155391Y-94811950D01*
X169889649Y-94811950D01*
X169267111Y-94935780D01*
X168912763Y-95172548D01*
X168718418Y-94881691D01*
X168563249Y-94778010D01*
X170813265Y-94778024D01*
X170820420Y-94776601D01*
X170827596Y-94777927D01*
X171021484Y-94736608D01*
X171215848Y-94697947D01*
X171221914Y-94693894D01*
X171229051Y-94692373D01*
X171392346Y-94580017D01*
X171557142Y-94469905D01*
X171561196Y-94463838D01*
X171567207Y-94459702D01*
X171675063Y-94293427D01*
X171774839Y-94144104D01*
X171774839Y-94326408D01*
G36*
X163266978Y-91339026D02*
X163470001Y-91654533D01*
X163779779Y-91866196D01*
X164147500Y-91940661D01*
X165488339Y-91940661D01*
X165488339Y-91955339D01*
X164147500Y-91955339D01*
X163803974Y-92019978D01*
X163488467Y-92223001D01*
X163276804Y-92532779D01*
X163202339Y-92900500D01*
X163202339Y-94297500D01*
X163266978Y-94641026D01*
X163379697Y-94816196D01*
X163358351Y-94811950D01*
X163092609Y-94811950D01*
X162470071Y-94935780D01*
X162296280Y-95051904D01*
X162296280Y-93186396D01*
X162328260Y-91996256D01*
X163214909Y-91062306D01*
X163266978Y-91339026D01*
X163266978Y-91339026D01*
G37*
X163266978Y-91339026D02*
X163470001Y-91654533D01*
X163779779Y-91866196D01*
X164147500Y-91940661D01*
X165488339Y-91940661D01*
X165488339Y-91955339D01*
X164147500Y-91955339D01*
X163803974Y-92019978D01*
X163488467Y-92223001D01*
X163276804Y-92532779D01*
X163202339Y-92900500D01*
X163202339Y-94297500D01*
X163266978Y-94641026D01*
X163379697Y-94816196D01*
X163358351Y-94811950D01*
X163092609Y-94811950D01*
X162470071Y-94935780D01*
X162296280Y-95051904D01*
X162296280Y-93186396D01*
X162328260Y-91996256D01*
X163214909Y-91062306D01*
X163266978Y-91339026D01*
G36*
X155031000Y-93218000D02*
X155031000Y-93666231D01*
X154565759Y-93433610D01*
X154568346Y-93127001D01*
X155049101Y-93127001D01*
X155031000Y-93218000D01*
X155031000Y-93218000D01*
G37*
X155031000Y-93218000D02*
X155031000Y-93666231D01*
X154565759Y-93433610D01*
X154568346Y-93127001D01*
X155049101Y-93127001D01*
X155031000Y-93218000D01*
G36*
X171887648Y-92667160D02*
X171855335Y-92714453D01*
X171855418Y-92667132D01*
X171887648Y-92667160D01*
X171887648Y-92667160D01*
G37*
X171887648Y-92667160D02*
X171855335Y-92714453D01*
X171855418Y-92667132D01*
X171887648Y-92667160D01*
G36*
X169751416Y-92667069D02*
X169751404Y-92674018D01*
X169537661Y-92674016D01*
X169537661Y-92666883D01*
X169751416Y-92667069D01*
X169751416Y-92667069D01*
G37*
X169751416Y-92667069D02*
X169751404Y-92674018D01*
X169537661Y-92674016D01*
X169537661Y-92666883D01*
X169751416Y-92667069D01*
G36*
X154707001Y-88860533D02*
X155016779Y-89072196D01*
X155384500Y-89146661D01*
X155709339Y-89146661D01*
X155709339Y-89535000D01*
X155773978Y-89878526D01*
X155795563Y-89912070D01*
X155783804Y-89929279D01*
X155709339Y-90297000D01*
X155709339Y-91023001D01*
X154716408Y-91023001D01*
X154678661Y-91000982D01*
X154678661Y-90360500D01*
X154614022Y-90016974D01*
X154594843Y-89987168D01*
X154602024Y-89136217D01*
X154660196Y-88996123D01*
X154660377Y-88788078D01*
X154707001Y-88860533D01*
X154707001Y-88860533D01*
G37*
X154707001Y-88860533D02*
X155016779Y-89072196D01*
X155384500Y-89146661D01*
X155709339Y-89146661D01*
X155709339Y-89535000D01*
X155773978Y-89878526D01*
X155795563Y-89912070D01*
X155783804Y-89929279D01*
X155709339Y-90297000D01*
X155709339Y-91023001D01*
X154716408Y-91023001D01*
X154678661Y-91000982D01*
X154678661Y-90360500D01*
X154614022Y-90016974D01*
X154594843Y-89987168D01*
X154602024Y-89136217D01*
X154660196Y-88996123D01*
X154660377Y-88788078D01*
X154707001Y-88860533D01*
G36*
X169755748Y-90213073D02*
X169537661Y-90212883D01*
X169537661Y-90079000D01*
X169755985Y-90079000D01*
X169755748Y-90213073D01*
X169755748Y-90213073D01*
G37*
X169755748Y-90213073D02*
X169537661Y-90212883D01*
X169537661Y-90079000D01*
X169755985Y-90079000D01*
X169755748Y-90213073D01*
G36*
X162756274Y-85863655D02*
X162694339Y-86169500D01*
X162694339Y-87058500D01*
X162758978Y-87402026D01*
X162910679Y-87637776D01*
X162705124Y-87775124D01*
X162469000Y-88011248D01*
X162469000Y-85761000D01*
X162736958Y-85761000D01*
X162756274Y-85863655D01*
X162756274Y-85863655D01*
G37*
X162756274Y-85863655D02*
X162694339Y-86169500D01*
X162694339Y-87058500D01*
X162758978Y-87402026D01*
X162910679Y-87637776D01*
X162705124Y-87775124D01*
X162469000Y-88011248D01*
X162469000Y-85761000D01*
X162736958Y-85761000D01*
X162756274Y-85863655D01*
G36*
X168747000Y-87578025D02*
X168747000Y-87975000D01*
X168739921Y-87975000D01*
X168740212Y-87641005D01*
X168701282Y-87546787D01*
X168747000Y-87578025D01*
X168747000Y-87578025D01*
G37*
X168747000Y-87578025D02*
X168747000Y-87975000D01*
X168739921Y-87975000D01*
X168740212Y-87641005D01*
X168701282Y-87546787D01*
X168747000Y-87578025D01*
G36*
X174716000Y-87573839D02*
X173427220Y-87573839D01*
X173565786Y-87240136D01*
X173565858Y-87158000D01*
X174498000Y-87158000D01*
X174716000Y-87114637D01*
X174716000Y-87573839D01*
X174716000Y-87573839D01*
G37*
X174716000Y-87573839D02*
X173427220Y-87573839D01*
X173565786Y-87240136D01*
X173565858Y-87158000D01*
X174498000Y-87158000D01*
X174716000Y-87114637D01*
X174716000Y-87573839D01*
G36*
X159603000Y-86705000D02*
X158550753Y-86705000D01*
X157753913Y-85908161D01*
X158813500Y-85908161D01*
X159157026Y-85843522D01*
X159472533Y-85640499D01*
X159603000Y-85449555D01*
X159603000Y-86705000D01*
X159603000Y-86705000D01*
G37*
X159603000Y-86705000D02*
X158550753Y-86705000D01*
X157753913Y-85908161D01*
X158813500Y-85908161D01*
X159157026Y-85843522D01*
X159472533Y-85640499D01*
X159603000Y-85449555D01*
X159603000Y-86705000D01*
G36*
X154961001Y-84733033D02*
X155179024Y-84882002D01*
X155040974Y-84907978D01*
X154725467Y-85111001D01*
X154634873Y-85243590D01*
X154640152Y-84618000D01*
X154886979Y-84618000D01*
X154961001Y-84733033D01*
X154961001Y-84733033D01*
G37*
X154961001Y-84733033D02*
X155179024Y-84882002D01*
X155040974Y-84907978D01*
X154725467Y-85111001D01*
X154634873Y-85243590D01*
X154640152Y-84618000D01*
X154886979Y-84618000D01*
X154961001Y-84733033D01*
G36*
X173108339Y-83375500D02*
X173108339Y-84264500D01*
X173172978Y-84608026D01*
X173376001Y-84923533D01*
X173446000Y-84971361D01*
X173446000Y-85054000D01*
X171379161Y-85054000D01*
X171379161Y-84963000D01*
X171314522Y-84619474D01*
X171111499Y-84303967D01*
X170801721Y-84092304D01*
X170434000Y-84017839D01*
X169857956Y-84017839D01*
X170132913Y-83840909D01*
X170344576Y-83531131D01*
X170378060Y-83365780D01*
X173110307Y-83365780D01*
X173108339Y-83375500D01*
X173108339Y-83375500D01*
G37*
X173108339Y-83375500D02*
X173108339Y-84264500D01*
X173172978Y-84608026D01*
X173376001Y-84923533D01*
X173446000Y-84971361D01*
X173446000Y-85054000D01*
X171379161Y-85054000D01*
X171379161Y-84963000D01*
X171314522Y-84619474D01*
X171111499Y-84303967D01*
X170801721Y-84092304D01*
X170434000Y-84017839D01*
X169857956Y-84017839D01*
X170132913Y-83840909D01*
X170344576Y-83531131D01*
X170378060Y-83365780D01*
X173110307Y-83365780D01*
X173108339Y-83375500D01*
G36*
X168504967Y-84285501D02*
X168402302Y-84435755D01*
X168317499Y-84303967D01*
X168057000Y-84125975D01*
X168057000Y-84108571D01*
X168779924Y-84108571D01*
X168504967Y-84285501D01*
X168504967Y-84285501D01*
G37*
X168504967Y-84285501D02*
X168402302Y-84435755D01*
X168317499Y-84303967D01*
X168057000Y-84125975D01*
X168057000Y-84108571D01*
X168779924Y-84108571D01*
X168504967Y-84285501D01*
G36*
X158896580Y-74786332D02*
X158614374Y-74842467D01*
X158603957Y-74844539D01*
X158529933Y-74894000D01*
X158127160Y-74894000D01*
X158093999Y-74842467D01*
X157784221Y-74630804D01*
X157416500Y-74556339D01*
X156527500Y-74556339D01*
X156183974Y-74620978D01*
X155868467Y-74824001D01*
X155656804Y-75133779D01*
X155582339Y-75501500D01*
X155582339Y-76390500D01*
X155644274Y-76719655D01*
X155582339Y-77025500D01*
X155582339Y-77914500D01*
X155646978Y-78258026D01*
X155850001Y-78573533D01*
X156159779Y-78785196D01*
X156174000Y-78788076D01*
X156174000Y-82112839D01*
X155638500Y-82112839D01*
X155294974Y-82177478D01*
X154979467Y-82380501D01*
X154888251Y-82514000D01*
X154657907Y-82514000D01*
X154728034Y-74204000D01*
X158314248Y-74204000D01*
X158896580Y-74786332D01*
X158896580Y-74786332D01*
G37*
X158896580Y-74786332D02*
X158614374Y-74842467D01*
X158603957Y-74844539D01*
X158529933Y-74894000D01*
X158127160Y-74894000D01*
X158093999Y-74842467D01*
X157784221Y-74630804D01*
X157416500Y-74556339D01*
X156527500Y-74556339D01*
X156183974Y-74620978D01*
X155868467Y-74824001D01*
X155656804Y-75133779D01*
X155582339Y-75501500D01*
X155582339Y-76390500D01*
X155644274Y-76719655D01*
X155582339Y-77025500D01*
X155582339Y-77914500D01*
X155646978Y-78258026D01*
X155850001Y-78573533D01*
X156159779Y-78785196D01*
X156174000Y-78788076D01*
X156174000Y-82112839D01*
X155638500Y-82112839D01*
X155294974Y-82177478D01*
X154979467Y-82380501D01*
X154888251Y-82514000D01*
X154657907Y-82514000D01*
X154728034Y-74204000D01*
X158314248Y-74204000D01*
X158896580Y-74786332D01*
G36*
X173362339Y-80073500D02*
X173362339Y-80962500D01*
X173401307Y-81169599D01*
X173394467Y-81174001D01*
X173334490Y-81261780D01*
X171613000Y-81261780D01*
X171613000Y-80676068D01*
X171787786Y-80255136D01*
X171787969Y-80046000D01*
X173367908Y-80046000D01*
X173362339Y-80073500D01*
X173362339Y-80073500D01*
G37*
X173362339Y-80073500D02*
X173362339Y-80962500D01*
X173401307Y-81169599D01*
X173394467Y-81174001D01*
X173334490Y-81261780D01*
X171613000Y-81261780D01*
X171613000Y-80676068D01*
X171787786Y-80255136D01*
X171787969Y-80046000D01*
X173367908Y-80046000D01*
X173362339Y-80073500D01*
G36*
X158436659Y-78181995D02*
X158412214Y-78240864D01*
X158411788Y-78728995D01*
X158587000Y-79153040D01*
X158587000Y-81223839D01*
X158278000Y-81223839D01*
X158278000Y-78295680D01*
X158287196Y-78282221D01*
X158317511Y-78132520D01*
X158436659Y-78181995D01*
X158436659Y-78181995D01*
G37*
X158436659Y-78181995D02*
X158412214Y-78240864D01*
X158411788Y-78728995D01*
X158587000Y-79153040D01*
X158587000Y-81223839D01*
X158278000Y-81223839D01*
X158278000Y-78295680D01*
X158287196Y-78282221D01*
X158317511Y-78132520D01*
X158436659Y-78181995D01*
G36*
X171838339Y-74866500D02*
X171902978Y-75210026D01*
X172050822Y-75439783D01*
X171912804Y-75641779D01*
X171838339Y-76009500D01*
X171838339Y-76672000D01*
X171105000Y-76672000D01*
X171105000Y-76249672D01*
X171431877Y-75922796D01*
X171659921Y-75581503D01*
X171740000Y-75178920D01*
X171740000Y-74222752D01*
X171838339Y-74124413D01*
X171838339Y-74866500D01*
X171838339Y-74866500D01*
G37*
X171838339Y-74866500D02*
X171902978Y-75210026D01*
X172050822Y-75439783D01*
X171912804Y-75641779D01*
X171838339Y-76009500D01*
X171838339Y-76672000D01*
X171105000Y-76672000D01*
X171105000Y-76249672D01*
X171431877Y-75922796D01*
X171659921Y-75581503D01*
X171740000Y-75178920D01*
X171740000Y-74222752D01*
X171838339Y-74124413D01*
X171838339Y-74866500D01*
G36*
X161163000Y-73271661D02*
X161318909Y-73271661D01*
X161418677Y-73371429D01*
X160992808Y-73371429D01*
X160992926Y-73237220D01*
X161163000Y-73271661D01*
X161163000Y-73271661D01*
G37*
X161163000Y-73271661D02*
X161318909Y-73271661D01*
X161418677Y-73371429D01*
X160992808Y-73371429D01*
X160992926Y-73237220D01*
X161163000Y-73271661D01*
G36*
X175891171Y-65091430D02*
X175878326Y-68726573D01*
X175241876Y-68090124D01*
X174900583Y-67862079D01*
X174498000Y-67782000D01*
X173790752Y-67782000D01*
X172955876Y-66947124D01*
X172614583Y-66719079D01*
X172212000Y-66639000D01*
X167386000Y-66639000D01*
X166983417Y-66719079D01*
X166642124Y-66947124D01*
X165499124Y-68090124D01*
X165271079Y-68431417D01*
X165204595Y-68765653D01*
X164664248Y-69306000D01*
X160401000Y-69306000D01*
X159998417Y-69386079D01*
X159657123Y-69614124D01*
X159264174Y-70007074D01*
X159041474Y-70048978D01*
X158725967Y-70252001D01*
X158514304Y-70561779D01*
X158439839Y-70929500D01*
X158439839Y-72100000D01*
X156166921Y-72100000D01*
X156167212Y-71766005D01*
X155980806Y-71314869D01*
X155635947Y-70969407D01*
X155185136Y-70782214D01*
X154756913Y-70781840D01*
X154805615Y-65010600D01*
X175484863Y-65010600D01*
X175891171Y-65091430D01*
X175891171Y-65091430D01*
G37*
X175891171Y-65091430D02*
X175878326Y-68726573D01*
X175241876Y-68090124D01*
X174900583Y-67862079D01*
X174498000Y-67782000D01*
X173790752Y-67782000D01*
X172955876Y-66947124D01*
X172614583Y-66719079D01*
X172212000Y-66639000D01*
X167386000Y-66639000D01*
X166983417Y-66719079D01*
X166642124Y-66947124D01*
X165499124Y-68090124D01*
X165271079Y-68431417D01*
X165204595Y-68765653D01*
X164664248Y-69306000D01*
X160401000Y-69306000D01*
X159998417Y-69386079D01*
X159657123Y-69614124D01*
X159264174Y-70007074D01*
X159041474Y-70048978D01*
X158725967Y-70252001D01*
X158514304Y-70561779D01*
X158439839Y-70929500D01*
X158439839Y-72100000D01*
X156166921Y-72100000D01*
X156167212Y-71766005D01*
X155980806Y-71314869D01*
X155635947Y-70969407D01*
X155185136Y-70782214D01*
X154756913Y-70781840D01*
X154805615Y-65010600D01*
X175484863Y-65010600D01*
X175891171Y-65091430D01*
G36*
X171172847Y-69814000D02*
X171081160Y-69814000D01*
X171047999Y-69762467D01*
X170857055Y-69632000D01*
X171209703Y-69632000D01*
X171172847Y-69814000D01*
X171172847Y-69814000D01*
G37*
X171172847Y-69814000D02*
X171081160Y-69814000D01*
X171047999Y-69762467D01*
X170857055Y-69632000D01*
X171209703Y-69632000D01*
X171172847Y-69814000D01*
M02*
